<svg width="24" height="24" viewBox="0 0 24 24" fill="none" xmlns="http://www.w3.org/2000/svg"><rect width="24" height="24" fill="none" rx="0" ry="0"></rect><path fill-rule="evenodd" clip-rule="evenodd" d="M3.6 9.0501H11.3999V12.05H4.1L4.09226 12.0501H3.6C3.38 12.0501 3.2 11.8701 3.2 11.6501V9.4501C3.2 9.2301 3.38 9.0501 3.6 9.0501ZM4.7 13.2501H11.3999V20.85H5.1C4.88 20.85 4.7 20.67 4.7 20.45V13.2501ZM12.5999 13.2501V20.85H18.9C19.12 20.85 19.3 20.67 19.3 20.45V13.2501H12.5999ZM18.9 22.05H12.0076L11.9999 22.0501L11.9922 22.05H5.1C4.22 22.05 3.5 21.33 3.5 20.45V13.247C2.6661 13.1949 2 12.4965 2 11.6501V9.4501C2 8.5701 2.72 7.8501 3.6 7.8501H6.79366C6.13032 7.50959 5.57545 7.10571 5.08996 6.62021C4.57996 6.12021 4.27996 5.61021 4.15996 5.08021C3.99996 4.38021 4.17996 3.61021 4.62996 3.02021C5.04996 2.48021 5.68996 2.10021 6.39996 1.99021C7.00996 1.89021 7.60996 1.99021 8.08996 2.27021C8.46996 2.49021 8.79996 2.83021 9.08996 3.30021C9.33169 3.7031 9.50128 4.13004 9.66332 4.53797L9.71996 4.68021C9.7422 4.73583 9.76411 4.79144 9.78598 4.847L9.78599 4.84701C9.88212 5.09111 9.97777 5.33398 10.1 5.57021C10.4517 6.27369 10.9433 6.77109 11.3284 7.11924C11.4521 6.87229 11.7083 6.7002 12 6.7002C12.2907 6.7002 12.5462 6.87112 12.6703 7.11673C13.0556 6.76219 13.5479 6.26447 13.9 5.56021C14.0196 5.3125 14.1246 5.05749 14.2275 4.80765L14.28 4.68021C14.46 4.22021 14.65 3.75021 14.92 3.30021C15.21 2.83021 15.53 2.49021 15.92 2.27021C16.4 1.99021 17 1.89021 17.6 1.99021C18.31 2.11021 18.95 2.48021 19.37 3.03021C19.82 3.62021 20 4.38021 19.84 5.08021C19.72 5.61021 19.42 6.12021 18.91 6.62021C18.4224 7.10781 17.8608 7.50897 17.1933 7.8501H20.4C21.28 7.8501 22 8.5701 22 9.4501V11.6501C22 12.4965 21.3339 13.1949 20.5 13.247V20.45C20.5 21.33 19.78 22.05 18.9 22.05ZM12.5999 9.0501V12.05H19.9L19.9077 12.0501H20.4C20.62 12.0501 20.8 11.8701 20.8 11.6501V9.4501C20.8 9.2301 20.62 9.0501 20.4 9.0501H12.5999ZM6.84996 3.15021C6.76996 3.15021 6.67996 3.16021 6.58996 3.17021C6.17996 3.24021 5.80996 3.45021 5.57996 3.76021C5.34996 4.06021 5.24996 4.47021 5.32996 4.82021C5.39996 5.12021 5.58996 5.43021 5.93996 5.77021C6.56996 6.40021 7.35996 6.86021 8.42996 7.24021C8.99996 7.44021 9.58996 7.59021 10.19 7.69021C9.80996 7.30021 9.36996 6.79021 9.02996 6.10021C8.88371 5.81686 8.76253 5.50845 8.6435 5.20552L8.6435 5.20551L8.6435 5.20551L8.6435 5.2055L8.60996 5.12021C8.43996 4.69021 8.27996 4.29021 8.05996 3.92021C7.87996 3.63021 7.68996 3.42021 7.48996 3.30021C7.30996 3.20021 7.08996 3.15021 6.84996 3.15021ZM16.52 3.31021C16.69 3.20021 16.91 3.15021 17.15 3.15021C17.23 3.15021 17.32 3.16021 17.41 3.17021C17.82 3.24021 18.19 3.46021 18.42 3.76021C18.65 4.07021 18.75 4.47021 18.67 4.82021C18.6 5.13021 18.4 5.44021 18.06 5.78021C17.43 6.41021 16.64 6.88021 15.57 7.25021C14.99 7.45021 14.4 7.60021 13.8 7.70021C14.19 7.31021 14.63 6.79021 14.97 6.11021C15.13 5.79021 15.26 5.46021 15.39 5.13021L15.4031 5.09721C15.5683 4.67924 15.7257 4.28099 15.94 3.93021C16.12 3.64021 16.32 3.43021 16.52 3.31021Z" fill="#ffffff"></path></svg>