<svg width="24" height="24" viewBox="0 0 24 24" fill="none" xmlns="http://www.w3.org/2000/svg"><rect width="24" height="24" fill="none" rx="0" ry="0"></rect><path fill-rule="evenodd" clip-rule="evenodd" d="M13.2499 20.5999C12.2899 20.5999 11.3499 20.4399 10.4599 20.1399C10.1499 20.0299 9.9799 19.6899 10.0899 19.3699C10.1999 19.0599 10.5399 18.8899 10.8499 18.9999C11.6099 19.2599 12.4199 19.3999 13.2399 19.3999C17.3199 19.3999 20.6399 16.0799 20.6399 11.9999C20.6399 8.2099 17.8099 5.0499 14.0599 4.6499C13.997 4.64487 13.9373 4.63984 13.8794 4.63496C13.7074 4.62047 13.552 4.60739 13.3799 4.5999H13.2399C9.36187 4.5999 6.17045 7.59935 5.864 11.3999H7.74989C7.98989 11.3999 8.20989 11.5499 8.29989 11.7699C8.39989 11.9899 8.34989 12.2499 8.16989 12.4199L5.66989 14.9199C5.55989 15.0399 5.39989 15.0999 5.24989 15.0999C5.09989 15.0999 4.94989 15.0399 4.82989 14.9199L2.32989 12.4199C2.14989 12.2499 2.10989 11.9899 2.19989 11.7699C2.28989 11.5499 2.50989 11.3999 2.74989 11.3999H4.67063C4.97995 6.93843 8.71157 3.3999 13.2499 3.3999H13.4099C13.6644 3.40933 13.8746 3.42765 14.0905 3.44647L14.1299 3.4499C18.5599 3.9199 21.8499 7.5999 21.8499 11.9999C21.8499 16.7399 17.9899 20.5999 13.2499 20.5999ZM12.7499 13.5999C12.4199 13.5999 12.1499 13.3299 12.1499 12.9999V7.9999C12.1499 7.6699 12.4199 7.3999 12.7499 7.3999C13.0799 7.3999 13.3499 7.6699 13.3499 7.9999V12.3999H17.2499C17.5799 12.3999 17.8499 12.6699 17.8499 12.9999C17.8499 13.3299 17.5799 13.5999 17.2499 13.5999H12.7499Z" fill="#ffffff"></path></svg>