<svg width="24" height="24" viewBox="0 0 24 24" fill="none" xmlns="http://www.w3.org/2000/svg"><rect width="24" height="24" fill="none" rx="0" ry="0"></rect><path fill-rule="evenodd" clip-rule="evenodd" d="M9.39533 5.88379H9.36701C9.03596 5.86816 8.7801 5.58691 8.79572 5.25586L8.9217 2.56543C8.9383 2.23535 9.17756 2.01563 9.54963 1.99414C9.88068 2.00977 10.1365 2.29102 10.1209 2.62207L9.99494 5.3125C9.97932 5.63379 9.71467 5.88379 9.39533 5.88379ZM13.2078 6.13764C13.0897 6.25874 12.9334 6.31928 12.7772 6.31928C12.6268 6.31928 12.4754 6.26362 12.3592 6.15034C12.1209 5.91889 12.116 5.53901 12.3465 5.3017L14.451 3.13667C14.6824 2.89936 15.0623 2.8935 15.2996 3.12397C15.5379 3.35542 15.5428 3.7353 15.3123 3.9726L13.2078 6.13764ZM3.59354 3.53029C3.81717 3.28615 4.19608 3.26954 4.44119 3.49122L6.74197 5.58693C6.98709 5.80958 7.00467 6.18947 6.78104 6.43458C6.66287 6.56447 6.50076 6.6299 6.33768 6.6299C6.19315 6.6299 6.04862 6.57814 5.93338 6.47365L3.6326 4.37794C3.38748 4.15529 3.3699 3.7754 3.59354 3.53029ZM10.7898 8.12109L21.5017 18.833C21.8533 19.1836 22.0466 19.6504 22.0466 20.1475C22.0466 20.6436 21.8533 21.1113 21.5017 21.4619C21.1511 21.8125 20.6843 22.0059 20.1882 22.0059C19.6912 22.0059 19.2234 21.8125 18.8728 21.4609L8.16187 10.749C7.92749 10.5166 7.79761 10.2051 7.79761 9.87305C7.79761 9.54102 7.92651 9.22852 8.16187 8.99414L9.03491 8.12109C9.51636 7.63672 10.3064 7.63574 10.7898 8.12109ZM20.6531 20.6133L20.6541 20.6123C20.7781 20.4883 20.8474 20.3232 20.8474 20.1475C20.8474 19.9717 20.7781 19.8057 20.6541 19.6807L15.416 14.4426L14.4978 15.3607L19.7214 20.6133C19.9714 20.8604 20.405 20.8623 20.6531 20.6133ZM5.40314 12.3417L3.29865 14.5068C3.06818 14.7441 3.07306 15.124 3.31134 15.3554C3.42755 15.4687 3.57892 15.5244 3.72931 15.5244C3.88556 15.5244 4.04181 15.4638 4.15997 15.3427L6.26447 13.1777C6.49494 12.9404 6.49005 12.5605 6.25177 12.329C6.01447 12.0986 5.63458 12.1044 5.40314 12.3417ZM6.06334 9.05377C6.04967 8.72271 5.75572 8.47271 5.43736 8.48053L2.52721 8.6065C2.19615 8.62115 1.93932 8.90142 1.95397 9.23248C1.96764 9.55474 2.23326 9.80572 2.55358 9.80572H2.57994L5.4901 9.67974C5.82115 9.6651 6.07799 9.38482 6.06334 9.05377Z" fill="#ffffff"></path></svg>