<?xml version="1.0" encoding="UTF-8"?>
<svg width="64px" height="64px" viewBox="0 0 64 64" version="1.1" xmlns="http://www.w3.org/2000/svg" xmlns:xlink="http://www.w3.org/1999/xlink">
    <title>favicon</title>
    <defs>
        <linearGradient x1="9.65239874%" y1="0%" x2="91.9615038%" y2="100.999999%" id="linearGradient-1">
            <stop stop-color="#633CA1" offset="0%"></stop>
            <stop stop-color="#4A74E2" offset="100%"></stop>
        </linearGradient>
        <linearGradient x1="0%" y1="49.6948242%" x2="101.999998%" y2="50.3112793%" id="linearGradient-2">
            <stop stop-color="#3023AE" offset="0%"></stop>
            <stop stop-color="#C86DD7" offset="100%"></stop>
        </linearGradient>
    </defs>
    <g id="Favicon" stroke="none" stroke-width="1" fill="none" fill-rule="evenodd">
        <g id="Artboard" transform="translate(-96.000000, -88.000000)">
            <g id="favicon" transform="translate(96.000000, 88.000000)">
                <path d="M6.35798689,59 L13.4000796,50.5714286 L18.094808,40.0357143 L23.5267556,18.9642857 L20.4421723,8.42857143 L14.3665335,6.32142857 L8.70535112,8.42857143 L8.70535112,12.6428571 C10.6853284,14.8287435 11.4677831,15.9216867 11.0527154,15.9216867 C10.6376476,15.9216867 8.62007578,14.8287435 5,12.6428571 L6.35798689,4.21428571 L27.484265,0 L39.2210861,12.6428571 L48.6105431,25.2857143 L55.6526358,40.0357143 L58,59 L6.35798689,59 Z" id="Path-2" fill="url(#linearGradient-1)"></path>
                <polygon id="Path" fill="url(#linearGradient-2)" transform="translate(32.000000, 61.500000) scale(1, -1) translate(-32.000000, -61.500000) " points="1.41480576 59 0 61.5 1.41480576 64 60.85062 64 62.7337009 64 64 61.5 62.7337009 59 60.93166 59"></polygon>
            </g>
        </g>
    </g>
</svg>
